<?xml version="1.0" encoding="UTF-8"?><svg id="a" xmlns="http://www.w3.org/2000/svg" viewBox="0 0 199 52"><defs><style>.b{fill:#fff;}.c{fill:#246d9a;}</style></defs><g><path class="b" d="M84.02,27.51h-3.29V11.68h3.29v15.83Z"/><path class="b" d="M87.06,11.68h3.47l6.29,11.04V11.68h3.08v15.83h-3.31l-6.45-11.23v11.23h-3.08V11.68Z"/><path class="b" d="M114.51,11.68v2.8h-4.74v13.03h-3.33V14.48h-4.76v-2.8h12.83Z"/><path class="b" d="M126.59,12.08c.58,.25,1.08,.62,1.48,1.11,.34,.4,.6,.85,.8,1.33,.2,.49,.29,1.04,.29,1.67,0,.75-.19,1.49-.57,2.22-.38,.73-1.01,1.24-1.88,1.54,.73,.29,1.25,.71,1.55,1.25,.3,.54,.46,1.37,.46,2.48v1.06c0,.72,.03,1.21,.09,1.47,.09,.41,.29,.71,.61,.9v.4h-3.65c-.1-.35-.17-.63-.21-.85-.09-.44-.13-.9-.14-1.36l-.02-1.47c-.01-1.01-.19-1.68-.52-2.02-.33-.34-.96-.5-1.88-.5h-3.23v6.21h-3.23V11.68h7.57c1.08,.02,1.92,.16,2.5,.41Zm-6.84,2.34v4.25h3.56c.71,0,1.24-.09,1.59-.26,.63-.3,.94-.9,.94-1.78,0-.96-.3-1.6-.91-1.93-.34-.19-.85-.28-1.53-.28h-3.65Z"/><path class="b" d="M136.86,11.68h3.74l5.6,15.83h-3.59l-1.04-3.25h-5.83l-1.07,3.25h-3.46l5.65-15.83Zm-.22,9.85h4.06l-2-6.23-2.06,6.23Z"/><path class="b" d="M147.05,19.93h5.99v2.9h-5.99v-2.9Z"/><path class="b" d="M158.56,27.51h-3.29V11.68h3.29v15.83Z"/><path class="b" d="M161.66,11.68h3.36v9.72c0,1.09,.13,1.88,.39,2.38,.4,.89,1.27,1.33,2.61,1.33s2.2-.44,2.6-1.33c.26-.5,.39-1.29,.39-2.38V11.68h3.36v9.73c0,1.68-.26,2.99-.78,3.93-.97,1.72-2.83,2.58-5.57,2.58s-4.6-.86-5.58-2.58c-.52-.94-.78-2.25-.78-3.93V11.68Z"/><path class="b" d="M189.05,11.68v2.8h-4.74v13.03h-3.33V14.48h-4.76v-2.8h12.83Z"/></g><path class="b" d="M61.81,26.01c0-2.51,.22-4.87,.65-7.06,.43-2.19,1.09-4.35,1.97-6.47,.88-2.12,1.97-4.25,3.27-6.39,.78-1.3,1.48-2.2,1.97-2.81,.51-.63,1.06-1.29,1.81-1.29,.82,0,1.22,.23,1.22,.68,0,.15-.38,1.05-1.15,2.71-.77,1.66-1.49,3.39-2.16,5.21-.68,1.82-1.3,4.08-1.87,6.8-.58,2.71-.86,5.59-.86,8.62s.28,5.84,.85,8.52c.57,2.68,1.37,5.01,2.09,6.97,.73,1.97,1.29,3.73,2.02,5.28,.72,1.56,1.09,2.4,1.09,2.54,0,.45-.41,.67-1.22,.67-.77,0-1.29-.77-1.81-1.35-.52-.58-1.17-1.52-1.97-2.8-1.32-2.2-2.4-4.32-3.26-6.36-.86-2.04-1.51-4.16-1.96-6.36-.45-2.2-.68-4.57-.68-7.12Z"/><g><g><path class="b" d="M83.4,35.06l-1.14,3.52h2.27l-1.14-3.52Zm2.7,5.76h-.83l-.53-1.53h-2.7l-.51,1.53h-.83l2.15-6.35h1.11l2.15,6.35Z"/><path class="b" d="M87.13,36.18h.8v4.64h-.8v-4.64Zm0-1.9h.8v1.16h-.8v-1.16Z"/><polygon class="b" points="88.87 40.82 90.39 38.48 88.89 36.18 89.72 36.18 90.83 37.88 91.94 36.18 92.76 36.18 91.26 38.48 92.79 40.82 91.95 40.82 90.83 39.09 89.71 40.82 88.87 40.82"/></g><path class="b" d="M97.4,39.35l-1.26-.73-.06-.03,.06-.03,1.26-.73c.05-.03,.07-.08,.08-.13,0-.05,.01-.09,.01-.13,0-.05,0-.09,0-.1v-.03l-.03-.02s-.13-.11-.27-.12c-.02,0-.05,0-.08,.02l-1.26,.73-.06,.03v-2.7c0-.11-.08-.15-.14-.19-.06-.04-.11-.06-.12-.06h-.06s-.06,.02-.12,.06c-.05,.04-.13,.09-.14,.19v2.7l-.06-.03-1.26-.73s-.05-.02-.08-.02c-.14,0-.26,.12-.27,.12l-.03,.02v.03s0,.04,0,.09c0,.04,0,.08,.01,.13,.01,.04,.03,.1,.08,.13l1.26,.72,.06,.03-.06,.03-1.26,.72c-.05,.03-.07,.08-.08,.13,0,.05-.01,.09-.01,.13,0,.05,0,.09,0,.1v.03l.03,.02s.13,.11,.27,.12h0s.05,0,.08-.02l1.26-.73,.06-.03v1.52c0,.11,.08,.15,.14,.19,.06,.04,.12,.06,.12,.06h.06s.06-.02,.12-.06c.06-.04,.13-.09,.14-.19v-1.52l.06,.03,1.26,.73s.06,.02,.08,.02c.14,0,.26-.11,.27-.12l.03-.02v-.03s0-.04,0-.1c0-.04,0-.08-.01-.13-.01-.04-.03-.09-.08-.13Z"/><g><polygon class="b" points="99.44 35.67 99.32 40.82 98.52 40.82 98.74 34.47 99.78 34.47 101.61 39.38 103.44 34.47 104.48 34.47 104.7 40.82 103.91 40.82 103.79 35.67 102.17 40 101.06 40 99.44 35.67"/><path class="b" d="M108.26,38.94h-1.18c-.5,0-.68,.15-.68,.62s.09,.67,.66,.67c.4,0,.85-.15,1.2-.38v-.9Zm.8,1.88h-.68l-.05-.34c-.41,.29-.94,.44-1.51,.44-.87,0-1.23-.52-1.23-1.34,0-.96,.49-1.31,1.42-1.31h1.24v-.73c0-.58-.26-.78-1.01-.78-.45,0-.88,.05-1.25,.12l-.09-.64c.44-.12,.88-.17,1.38-.17,1.32,0,1.76,.52,1.76,1.51v3.23Z"/><path class="b" d="M112.44,36.81c-.44,.21-.94,.53-1.33,.8v3.2h-.8v-4.64h.7l.04,.65c.34-.27,.82-.55,1.28-.74l.11,.73Z"/><path class="b" d="M114.53,40.91c-.48,0-1.11-.11-1.48-.25l.11-.63c.4,.11,.93,.19,1.33,.19,.73,0,.86-.13,.86-.63s-.04-.55-.97-.78c-1.15-.29-1.26-.53-1.26-1.49,0-.86,.38-1.25,1.6-1.25,.45,0,.94,.06,1.32,.16l-.06,.66c-.39-.08-.91-.13-1.29-.13-.69,0-.78,.16-.78,.58,0,.51,.01,.61,.79,.8,1.34,.33,1.44,.5,1.44,1.42s-.27,1.35-1.6,1.35"/><path class="b" d="M117.88,38.14h1.99v-.38c0-.65-.22-1.01-.97-1.01s-1.02,.36-1.02,1.01v.38Zm1.11,2.09c.46,0,.96-.09,1.47-.22l.11,.64c-.44,.16-1.06,.27-1.64,.27-1.37,0-1.84-.66-1.84-1.71v-1.39c0-.96,.44-1.73,1.82-1.73s1.74,.79,1.74,1.75v.97h-2.77v.39c0,.73,.2,1.03,1.11,1.03"/><path class="b" d="M121.7,36.18h.8v4.64h-.8v-4.64Zm0-1.9h.8v1.16h-.8v-1.16Z"/><polygon class="b" points="124.03 40.82 124.03 34.28 124.82 34.17 124.82 40.82 124.03 40.82"/><polygon class="b" points="126.35 40.82 126.35 34.28 127.15 34.17 127.15 40.82 126.35 40.82"/><path class="b" d="M128.92,38.14h1.99v-.38c0-.65-.22-1.01-.97-1.01s-1.02,.36-1.02,1.01v.38Zm1.11,2.09c.46,0,.96-.09,1.47-.22l.11,.64c-.44,.16-1.06,.27-1.64,.27-1.38,0-1.84-.66-1.84-1.71v-1.39c0-.96,.44-1.73,1.82-1.73s1.75,.79,1.75,1.75v.97h-2.77v.39c0,.73,.2,1.03,1.11,1.03"/><path class="b" d="M139.34,34.63v4.42c0,1.01-.58,1.82-2.18,1.82s-2.18-.81-2.18-1.82v-4.42h.79v4.38c0,.76,.42,1.15,1.39,1.15s1.38-.4,1.38-1.15v-4.38h.79Z"/><path class="b" d="M143.65,40.79v-3.44c0-.3-.15-.42-.44-.42-.33,0-1.02,.2-1.5,.45v3.4h-.78v-4.5h.63l.07,.39c.5-.24,1.27-.48,1.81-.48,.72,0,.98,.45,.98,1.15v3.45h-.78Z"/><path class="b" d="M145.86,36.29h.78v4.5h-.78v-4.5Zm0-1.84h.78v1.12h-.78v-1.12Z"/><polygon class="b" points="150.69 36.29 151.45 36.29 149.97 40.79 148.93 40.79 147.45 36.29 148.21 36.29 149.45 40.15 150.69 36.29"/><path class="b" d="M152.81,38.19h1.93v-.37c0-.63-.21-.98-.94-.98s-.99,.35-.99,.98v.37Zm1.07,2.02c.44,0,.93-.08,1.42-.21l.1,.62c-.43,.16-1.03,.26-1.59,.26-1.33,0-1.78-.64-1.78-1.65v-1.35c0-.93,.43-1.68,1.76-1.68s1.69,.77,1.69,1.7v.94h-2.68v.38c0,.71,.2,1,1.07,1"/><path class="b" d="M158.77,36.91c-.43,.2-.91,.52-1.28,.78v3.1h-.78v-4.5h.67l.05,.63c.33-.26,.79-.54,1.24-.72l.1,.71Z"/><path class="b" d="M160.8,40.88c-.46,0-1.07-.1-1.43-.24l.1-.61c.39,.11,.9,.19,1.28,.19,.71,0,.83-.13,.83-.61s-.04-.53-.94-.76c-1.12-.28-1.22-.51-1.22-1.44,0-.83,.37-1.21,1.55-1.21,.43,0,.91,.06,1.28,.16l-.06,.64c-.38-.07-.88-.13-1.25-.13-.67,0-.76,.16-.76,.56,0,.5,.01,.59,.77,.78,1.29,.32,1.39,.48,1.39,1.38s-.27,1.3-1.55,1.3"/><path class="b" d="M163.61,36.29h.78v4.5h-.78v-4.5Zm0-1.84h.78v1.12h-.78v-1.12Z"/><path class="b" d="M168.21,40.71c-.28,.1-.61,.17-.94,.17-.76,0-1.12-.28-1.12-1.02v-2.92h-.79v-.64h.79v-1.11l.78-.11v1.22h1.27l-.06,.64h-1.21v2.79c0,.33,.05,.5,.46,.5,.21,0,.44-.04,.72-.11l.1,.6Z"/><path class="b" d="M170.22,35.26c.46-.27,.94-.57,1.27-.84l.33,.52c-.42,.32-.81,.56-1.28,.8l-.32-.48Zm-.41,2.93h1.93v-.37c0-.63-.21-.98-.94-.98s-.99,.35-.99,.98v.37Zm1.07,2.02c.44,0,.93-.08,1.42-.21l.1,.62c-.43,.16-1.03,.26-1.59,.26-1.33,0-1.78-.64-1.78-1.65v-1.35c0-.93,.43-1.68,1.76-1.68s1.69,.77,1.69,1.7v.94h-2.68v.38c0,.71,.2,1,1.07,1"/></g></g><g><path class="b" d="M45.13,28.98c-1.78,8.05-9.74,13.14-17.79,11.36-8.05-1.78-13.14-9.75-11.36-17.8,1.78-8.05,9.74-13.14,17.8-11.36,8.05,1.78,13.14,9.75,11.36,17.8Z"/><path class="b" d="M30.6,49.52c-1.72,0-3.45-.19-5.17-.57l.74-3.35c5.3,1.17,10.74,.21,15.31-2.71,4.58-2.92,7.74-7.45,8.91-12.75,2.42-10.94-4.52-21.81-15.46-24.22l.74-3.35c12.79,2.82,20.89,15.52,18.07,28.31-1.37,6.19-5.07,11.48-10.41,14.9-3.86,2.46-8.25,3.74-12.73,3.74Z"/><path class="b" d="M30.59,43.63c-1.29,0-2.59-.14-3.89-.43l.32-1.43c4.28,.94,8.67,.17,12.36-2.19,3.69-2.36,6.25-6.01,7.19-10.29,.95-4.28,.17-8.67-2.19-12.36-2.36-3.69-6.01-6.24-10.29-7.19l.32-1.43c4.66,1.03,8.64,3.81,11.21,7.83,2.57,4.02,3.41,8.8,2.38,13.47-1.03,4.66-3.81,8.64-7.83,11.21-2.91,1.86-6.21,2.81-9.58,2.81Z"/><path class="b" d="M26.16,45.62c-5.31-1.17-9.84-4.34-12.76-8.92-2.92-4.58-3.89-10.03-2.71-15.33,1.17-5.31,4.34-9.84,8.92-12.76,4.58-2.92,10.03-3.89,15.33-2.72l-.53,2.39c-4.67-1.03-9.46-.18-13.49,2.39-4.03,2.57-6.81,6.56-7.84,11.23-1.03,4.67-.18,9.46,2.39,13.49,2.57,4.03,6.56,6.82,11.22,7.85l-.53,2.39Z"/></g><path class="c" d="M19.84,20v2.4h2.39v-2.4h-2.39Zm4.79,2.4v3.9c0,1.85,.42,3.27,1.27,4.27,.85,.99,1.97,1.49,3.54,1.49s2.44-.51,3.37-1.53c.93-1.02,1.4-2.42,1.4-4.22v-6.3h-2.39v6.42c0,1-.2,1.74-.73,2.37-.4,.48-1.04,.86-1.66,.86-.65,0-1.32-.39-1.73-.88-.5-.61-.66-1.35-.66-2.29v-6.49h-3.59v2.39m11.97-2.39v2.39h1.19v9.35h2.4v-9.35h2.39v-2.39h-5.98Zm-15.56,3.59v8.13h2.39v-8.13h-2.39Z"/></svg>